<svg width="142" height="34" viewBox="0 0 142 34" fill="none" xmlns="http://www.w3.org/2000/svg">
<path d="M4.732 9.036C6.34 9.036 7.996 9.06 9.7 9.108C11.404 9.132 12.952 9.264 14.344 9.504L14.128 13.212H7.108C6.508 13.212 6.076 13.344 5.812 13.608C5.548 13.848 5.416 14.256 5.416 14.832V27H0.16V13.356C0.16 11.892 0.532 10.812 1.276 10.116C2.044 9.396 3.196 9.036 4.732 9.036ZM34.5318 9.216V27L29.7438 27.036V17.712C29.7438 17.232 29.7558 16.764 29.7798 16.308C29.8278 15.852 29.8878 15.36 29.9598 14.832H29.8158C29.6718 15.264 29.4678 15.732 29.2038 16.236C28.9398 16.716 28.6878 17.136 28.4478 17.496L21.7158 27H17.0718V9.216H21.8238V18.792C21.8238 19.224 21.8118 19.656 21.7878 20.088C21.7638 20.496 21.7158 20.94 21.6438 21.42H21.7518C21.9438 20.964 22.1478 20.544 22.3638 20.16C22.6038 19.752 22.8438 19.368 23.0838 19.008L29.9238 9.216H34.5318ZM54.8845 0.395999L55.7485 4.464C54.9565 4.92 54.1885 5.244 53.4445 5.436C52.7245 5.628 52.0165 5.76 51.3205 5.832C50.6245 5.88 49.9285 5.94 49.2325 6.012C48.5605 6.06 47.8645 6.18 47.1445 6.372C46.3045 6.612 45.6205 6.924 45.0925 7.308C44.5645 7.692 44.1565 8.124 43.8685 8.604C43.6045 9.06 43.4005 9.552 43.2565 10.08C43.0405 10.536 42.8965 10.992 42.8245 11.448C42.7525 11.88 42.6805 12.3 42.6085 12.708H42.7165C43.0285 12.3 43.3645 11.928 43.7245 11.592C44.0845 11.232 44.5045 10.92 44.9845 10.656C45.4885 10.392 46.0765 10.188 46.7485 10.044C47.4445 9.9 48.2485 9.828 49.1605 9.828C51.0325 9.828 52.5205 10.116 53.6245 10.692C54.7285 11.268 55.5205 12.18 56.0005 13.428C56.4805 14.652 56.7205 16.272 56.7205 18.288C56.7205 20.28 56.4565 21.96 55.9285 23.328C55.4005 24.672 54.4885 25.692 53.1925 26.388C51.9205 27.084 50.1565 27.432 47.9005 27.432C46.1485 27.432 44.6965 27.24 43.5445 26.856C42.4165 26.472 41.5165 25.944 40.8445 25.272C40.1965 24.6 39.7165 23.784 39.4045 22.824C39.1165 21.864 38.9245 20.808 38.8285 19.656C38.7565 18.504 38.7205 17.28 38.7205 15.984C38.7205 14.208 38.8045 12.6 38.9725 11.16C39.1405 9.696 39.4525 8.4 39.9085 7.272C40.3645 6.144 41.0245 5.184 41.8885 4.392C42.7765 3.6 43.9285 2.964 45.3445 2.484C46.1845 2.22 47.0005 2.028 47.7925 1.908C48.5845 1.788 49.3645 1.692 50.1325 1.62C50.9245 1.548 51.7045 1.428 52.4725 1.26C53.2645 1.092 54.0685 0.803998 54.8845 0.395999ZM47.8285 13.284C46.7965 13.284 46.0165 13.452 45.4885 13.788C44.9845 14.124 44.6365 14.652 44.4445 15.372C44.2765 16.068 44.1925 17.028 44.1925 18.252C44.1925 19.644 44.3005 20.736 44.5165 21.528C44.7325 22.296 45.0925 22.836 45.5965 23.148C46.1005 23.436 46.7965 23.58 47.6845 23.58C48.5485 23.58 49.2325 23.436 49.7365 23.148C50.2405 22.836 50.6005 22.296 50.8165 21.528C51.0325 20.76 51.1405 19.668 51.1405 18.252C51.1405 16.932 51.0445 15.912 50.8525 15.192C50.6605 14.472 50.3245 13.98 49.8445 13.716C49.3645 13.428 48.6925 13.284 47.8285 13.284ZM68.8067 8.748C71.8307 8.748 73.9907 9.264 75.2867 10.296C76.5827 11.304 77.2427 12.816 77.2667 14.832C77.2907 16.464 76.8827 17.688 76.0427 18.504C75.2027 19.296 73.7507 19.692 71.6867 19.692H61.7147V16.704H70.2107C71.0027 16.704 71.5187 16.536 71.7587 16.2C71.9987 15.84 72.1067 15.348 72.0827 14.724C72.0827 13.884 71.8427 13.308 71.3627 12.996C70.9067 12.66 70.1147 12.492 68.9867 12.492C68.0027 12.492 67.2347 12.624 66.6827 12.888C66.1547 13.152 65.7827 13.656 65.5667 14.4C65.3507 15.144 65.2427 16.224 65.2427 17.64C65.2427 19.128 65.3747 20.28 65.6387 21.096C65.9027 21.888 66.3467 22.44 66.9707 22.752C67.6187 23.064 68.4947 23.22 69.5987 23.22C70.4387 23.22 71.4587 23.196 72.6587 23.148C73.8827 23.076 75.1067 22.968 76.3307 22.824L76.7987 26.1C76.1267 26.436 75.3467 26.7 74.4587 26.892C73.5707 27.084 72.6587 27.216 71.7227 27.288C70.7867 27.384 69.8747 27.432 68.9867 27.432C66.7547 27.432 64.9427 27.108 63.5507 26.46C62.1827 25.788 61.1867 24.768 60.5627 23.4C59.9627 22.032 59.6627 20.28 59.6627 18.144C59.6627 15.816 59.9747 13.968 60.5987 12.6C61.2227 11.232 62.2067 10.248 63.5507 9.648C64.8947 9.048 66.6467 8.748 68.8067 8.748ZM92.5101 8.784C94.7661 8.784 96.3741 9.6 97.3341 11.232C98.2941 12.864 98.7741 15.204 98.7741 18.252C98.7741 20.628 98.5221 22.488 98.0181 23.832C97.5141 25.176 96.7581 26.124 95.7501 26.676C94.7661 27.204 93.5301 27.468 92.0421 27.468C90.7941 27.468 89.5821 27.288 88.4061 26.928C87.2541 26.568 86.2461 25.968 85.3821 25.128L85.7061 22.752C86.5221 22.992 87.2541 23.208 87.9021 23.4C88.5501 23.568 89.2941 23.652 90.1341 23.652C90.9021 23.652 91.5141 23.52 91.9701 23.256C92.4261 22.992 92.7501 22.476 92.9421 21.708C93.1581 20.916 93.2661 19.776 93.2661 18.288C93.2661 16.824 93.1701 15.708 92.9781 14.94C92.7861 14.148 92.4741 13.608 92.0421 13.32C91.6341 13.008 91.0821 12.852 90.3861 12.852C89.5941 12.852 88.8741 13.008 88.2261 13.32C87.5781 13.608 86.8461 14.028 86.0301 14.58L85.3461 12.132C85.8261 11.484 86.4381 10.908 87.1821 10.404C87.9501 9.9 88.7901 9.504 89.7021 9.216C90.6141 8.928 91.5501 8.784 92.5101 8.784ZM85.1301 9.216L85.6701 12.456L86.1381 12.996V24.552L85.9581 24.984C86.0301 25.704 86.0781 26.448 86.1021 27.216C86.1501 28.008 86.1621 28.788 86.1381 29.556V33.84H80.8461V9.216H85.1301ZM107.758 9.216V27H102.502V9.216H107.758ZM114.886 15.804V19.44H107.542V15.804H114.886ZM119.818 9.216V27H114.562V9.216H119.818ZM132.722 8.748C134.954 8.748 136.742 9.06 138.086 9.684C139.43 10.284 140.39 11.268 140.966 12.636C141.566 14.004 141.866 15.84 141.866 18.144C141.866 20.4 141.566 22.212 140.966 23.58C140.39 24.948 139.43 25.932 138.086 26.532C136.742 27.132 134.954 27.432 132.722 27.432C130.49 27.432 128.702 27.132 127.358 26.532C126.014 25.932 125.042 24.948 124.442 23.58C123.842 22.212 123.542 20.4 123.542 18.144C123.542 15.84 123.842 14.004 124.442 12.636C125.042 11.268 126.014 10.284 127.358 9.684C128.702 9.06 130.49 8.748 132.722 8.748ZM132.722 12.636C131.81 12.636 131.09 12.792 130.562 13.104C130.034 13.416 129.662 13.968 129.446 14.76C129.23 15.552 129.122 16.68 129.122 18.144C129.122 19.584 129.23 20.7 129.446 21.492C129.662 22.284 130.034 22.836 130.562 23.148C131.09 23.436 131.81 23.58 132.722 23.58C133.634 23.58 134.354 23.436 134.882 23.148C135.41 22.836 135.77 22.284 135.962 21.492C136.178 20.7 136.286 19.584 136.286 18.144C136.286 16.68 136.178 15.552 135.962 14.76C135.77 13.968 135.41 13.416 134.882 13.104C134.354 12.792 133.634 12.636 132.722 12.636Z" fill="#0A7272"/>
</svg>
